<?xml version="1.0" encoding="UTF-8"?>
<svg width="1142px" height="542px" viewBox="0 0 1142 542" version="1.1" xmlns="http://www.w3.org/2000/svg" xmlns:xlink="http://www.w3.org/1999/xlink">
    <!-- Generator: Sketch 53.1 (72631) - https://sketchapp.com -->
    <title>part1 2</title>
    <desc>Created with Sketch.</desc>
    <g id="Page-1" stroke="none" stroke-width="1" fill="none" fill-rule="evenodd" stroke-linecap="round" stroke-linejoin="round">
        <g id="part1-2" transform="translate(1.000000, 1.000000)" stroke="#FFFFFF" stroke-width="2">
            <path d="M1129.6429,68.8733852 C1133.63714,58.3825903 1124.75705,29.7093281 1117.02976,28.4595792 C1110.53631,27.4108939 1104.02935,19.4550788 1097.44584,19.5930637 C1082.43255,19.9124002 1074.44858,17.7677206 1059.34523,19.5930637 C1046.92122,21.0951279 1036.23539,17.4799236 1023.59523,16.8333657 C1004.68227,15.863529 988.259517,20.5353035 969.337551,19.5930637 C956.134503,18.9346786 933.722645,21.4617735 920.924875,19.5930637 C893.681206,15.6190986 894.843002,5.90890409 867.563309,3.03487575 C856.003887,1.8166662 820.47454,10.3401906 808.798039,10.131242 C783.225014,9.67392065 753.689275,3.14132124 728.192803,1.85214803 C678.676871,-0.655234722 649.631968,10.8329938 600.080011,10.131242 C550.528055,9.42949025 523.869787,1.72993283 488.178329,0.275177746 C452.13563,-1.19534704 399.233378,3.68143356 363.217698,4.21760346 C329.295953,4.72223395 323.968802,3.80759118 290.042554,4.21760346 C259.723277,4.58819148 193.559437,1.94676625 163.280688,3.03487575 C133.249609,4.11115796 115.385867,13.3600887 85.3773035,15.2563955 C72.2237899,16.0882473 59.4080076,14.6492619 46.200457,15.2563955 C41.5442662,15.4692864 31.6374775,12.6425672 27.1839256,13.2851826 C22.4421762,13.9711647 24.4280371,39.0962437 24.5766389,43.6379182 C25.0449598,58.1578721 23.7525742,72.5989774 21.8657812,87.004601 C20.4563154,97.7634808 15.8361494,126.665404 14.7734211,137.471593 C12.2832146,162.722829 2.00717283,167.390661 2.07021603,192.665553 C2.11524689,210.233002 3.01586405,241.283546 2.07021603,258.898305 C1.03000321,278.306866 14.3096033,310.421866 14.7734211,329.861967 C15.2957791,351.738488 0.687768688,393.583394 2.07021603,415.412605 C4.57843483,455.09312 5.44753039,451.174349 2.07021603,491.107179 C1.62441054,496.37426 -2.35631732,503.084268 2.07021603,513.184763 C6.49674938,523.285258 17.1960813,537.489818 24.5766389,537.627802 C36.5728595,537.848578 60.3221341,538.148203 72.3183547,537.627802 C99.363888,536.456902 98.9090764,537.667227 125.905076,539.993258 C127.688298,540.147012 182.64846,537.619918 184.445191,537.627802 C227.674815,537.888003 246.81293,525.887259 290.042554,526.194768 C318.560596,526.395832 346.412182,536.965475 374.916715,537.627802 C397.130437,538.14426 422.973647,526.991138 445.17386,526.194768 C474.615035,525.138198 510.320002,539.894697 539.738662,537.627802 C568.468349,535.412159 584.044523,538.877551 612.913806,537.627802 C633.525767,536.737353 659.173451,526.895506 679.78463,526.194768 C706.899847,525.272905 743.152268,537.166394 770.296655,537.627802 C805.177558,538.223109 852.92828,533.590758 887.60204,537.627802 L969.337551,526.194768 C972.218869,526.495619 1015.80658,525.896234 1059.34523,526.194768 C1079.87719,526.335551 1101.25578,525.896234 1117.02976,526.194768 C1132.80374,526.493302 1132.66412,449.810009 1140,428.42261 C1126.08252,379.941764 1118.42578,342.620134 1117.02976,316.45772 C1115.18139,281.817972 1119.12379,192.665553 1130.99383,163.491602 C1142.79135,134.495882 1142.34104,102.956476 1129.6429,68.8733852 Z" id="Path"></path>
            <path d="M1129.6429,68.8733852 C1133.63714,58.3825903 1124.75705,29.7093281 1117.02976,28.4595792 C1110.53631,27.4108939 1104.02935,19.4550788 1097.44584,19.5930637 C1082.43255,19.9124002 1074.44858,17.7677206 1059.34523,19.5930637 C1046.92122,21.0951279 1036.23539,17.4799236 1023.59523,16.8333657 C1004.68227,15.863529 988.259517,20.5353035 969.337551,19.5930637 C956.134503,18.9346786 933.722645,21.4617735 920.924875,19.5930637 C893.681206,15.6190986 894.843002,5.90890409 867.563309,3.03487575 C856.003887,1.8166662 820.47454,10.3401906 808.798039,10.131242 C783.225014,9.67392065 753.689275,3.14132124 728.192803,1.85214803 C678.676871,-0.655234722 649.631968,10.8329938 600.080011,10.131242 C550.528055,9.42949025 523.869787,1.72993283 488.178329,0.275177746 C452.13563,-1.19534704 399.233378,3.68143356 363.217698,4.21760346 C329.295953,4.72223395 323.968802,3.80759118 290.042554,4.21760346 C259.723277,4.58819148 193.559437,1.94676625 163.280688,3.03487575 C133.249609,4.11115796 115.385867,13.3600887 85.3773035,15.2563955 C72.2237899,16.0882473 59.4080076,14.6492619 46.200457,15.2563955 C41.5442662,15.4692864 31.6374775,12.6425672 27.1839256,13.2851826 C22.4421762,13.9711647 24.4280371,39.0962437 24.5766389,43.6379182 C25.0449598,58.1578721 23.7525742,72.5989774 21.8657812,87.004601 C20.4563154,97.7634808 15.8361494,126.665404 14.7734211,137.471593 C12.2832146,162.722829 2.00717283,167.390661 2.07021603,192.665553 C2.11524689,210.233002 3.01586405,241.283546 2.07021603,258.898305 C1.03000321,278.306866 14.3096033,310.421866 14.7734211,329.861967 C15.2957791,351.738488 0.687768688,393.583394 2.07021603,415.412605 C4.57843483,455.09312 5.44753039,451.174349 2.07021603,491.107179 C1.62441054,496.37426 -2.35631732,503.084268 2.07021603,513.184763 C6.49674938,523.285258 17.1960813,537.489818 24.5766389,537.627802 C36.5728595,537.848578 60.3221341,538.148203 72.3183547,537.627802 C99.363888,536.456902 98.9090764,537.667227 125.905076,539.993258 C127.688298,540.147012 182.64846,537.619918 184.445191,537.627802 C227.674815,537.888003 246.81293,525.887259 290.042554,526.194768 C318.560596,526.395832 346.412182,536.965475 374.916715,537.627802 C397.130437,538.14426 422.973647,526.991138 445.17386,526.194768 C474.615035,525.138198 510.320002,539.894697 539.738662,537.627802 C568.468349,535.412159 584.044523,538.877551 612.913806,537.627802 C633.525767,536.737353 659.173451,526.895506 679.78463,526.194768 C706.899847,525.272905 743.152268,537.166394 770.296655,537.627802 C805.177558,538.223109 852.92828,533.590758 887.60204,537.627802 L969.337551,526.194768 C972.218869,526.495619 1015.80658,525.896234 1059.34523,526.194768 C1079.87719,526.335551 1101.25578,525.896234 1117.02976,526.194768 C1132.80374,526.493302 1132.66412,449.810009 1140,428.42261 C1126.08252,379.941764 1118.42578,342.620134 1117.02976,316.45772 C1115.18139,281.817972 1119.12379,192.665553 1130.99383,163.491602 C1142.79135,134.495882 1142.34104,102.956476 1129.6429,68.8733852 Z" id="Path" transform="translate(570.000000, 270.000000) scale(-1, -1) translate(-570.000000, -270.000000) "></path>
        </g>
    </g>
</svg>