<?xml version="1.0" encoding="UTF-8"?>
<svg width="2534px" height="1373px" viewBox="0 0 2534 1373" version="1.1" xmlns="http://www.w3.org/2000/svg" xmlns:xlink="http://www.w3.org/1999/xlink">
    <!-- Generator: Sketch 53 (72520) - https://sketchapp.com -->
    <title>part1 2</title>
    <desc>Created with Sketch.</desc>
    <g id="Page-1" stroke="none" stroke-width="1" fill="none" fill-rule="evenodd" stroke-linecap="round" stroke-linejoin="round">
        <g id="part1-2" transform="translate(1.000000, 1.000000)" stroke="#FFFFFF" stroke-width="2">
            <path d="M2509,175 C2517.87,148.39 2498.15,75.66 2480.99,72.49 C2466.57,69.83 2452.12,49.65 2437.5,50 C2404.16,50.81 2386.43,45.37 2352.89,50 C2325.3,53.81 2301.57,44.64 2273.5,43 C2231.5,40.54 2195.03,52.39 2153.01,50 C2123.69,48.33 2073.92,54.74 2045.5,50 C1985,39.92 1987.58,15.29 1927,8 C1901.33,4.91 1822.43,26.53 1796.5,26 C1739.71,24.84 1674.12,8.27 1617.5,5 C1507.54,-1.36 1443.04,27.78 1333,26 C1222.96,24.22 1163.76,4.69 1084.5,1 C1004.46,-2.73 886.98,9.64 807,11 C731.67,12.28 719.84,9.96 644.5,11 C577.17,11.94 430.24,5.24 363,8 C296.31,10.73 256.64,34.19 190,39 C160.79,41.11 132.33,37.46 103,39 C92.66,39.54 70.66,32.37 60.77,34 C50.24,35.74 54.65,99.47 54.98,110.99 C56.02,147.82 53.15,184.45 48.96,220.99 C45.83,248.28 35.57,321.59 33.21,349 C27.68,413.05 4.86,424.89 5,489 C5.1,533.56 7.1,612.32 5,657 C2.69,706.23 32.18,787.69 33.21,837 C34.37,892.49 1.93,998.63 5,1054 C10.57,1154.65 12.5,1144.71 5,1246 C4.01,1259.36 -4.83,1276.38 5,1302 C14.83,1327.62 38.59,1363.65 54.98,1364 C81.62,1364.56 134.36,1365.32 161,1364 C221.06,1361.03 220.05,1364.1 280,1370 C283.96,1370.39 406.01,1363.98 410,1364 C506,1364.66 548.5,1334.22 644.5,1335 C707.83,1335.51 769.68,1362.32 832.98,1364 C882.31,1365.31 939.7,1337.02 989,1335 C1054.38,1332.32 1133.67,1369.75 1199,1364 C1262.8,1358.38 1297.39,1367.17 1361.5,1364 C1407.27297,1361.74137 1464.22877,1336.77743 1510,1335 C1570.21475,1332.66169 1650.72047,1362.82963 1711,1364 C1788.46,1365.51 1894.5,1353.76 1971.5,1364 L2153.01,1335 C2159.40854,1335.76311 2256.20375,1334.24277 2352.89,1335 C2398.4853,1335.3571 2445.96074,1334.24277 2480.99,1335 C2516.01926,1335.75723 2515.70922,1141.24934 2532,1087 C2501.09347,964.027876 2484.09014,869.36121 2480.99,803 C2476.88533,715.135953 2485.64021,489 2512,415 C2538.19876,341.452082 2537.19876,261.452082 2509,175 Z" id="Path"></path>
            <path d="M2509,175 C2517.87,148.39 2498.15,75.66 2480.99,72.49 C2466.57,69.83 2452.12,49.65 2437.5,50 C2404.16,50.81 2386.43,45.37 2352.89,50 C2325.3,53.81 2301.57,44.64 2273.5,43 C2231.5,40.54 2195.03,52.39 2153.01,50 C2123.69,48.33 2073.92,54.74 2045.5,50 C1985,39.92 1987.58,15.29 1927,8 C1901.33,4.91 1822.43,26.53 1796.5,26 C1739.71,24.84 1674.12,8.27 1617.5,5 C1507.54,-1.36 1443.04,27.78 1333,26 C1222.96,24.22 1163.76,4.69 1084.5,1 C1004.46,-2.73 886.98,9.64 807,11 C731.67,12.28 719.84,9.96 644.5,11 C577.17,11.94 430.24,5.24 363,8 C296.31,10.73 256.64,34.19 190,39 C160.79,41.11 132.33,37.46 103,39 C92.66,39.54 70.66,32.37 60.77,34 C50.24,35.74 54.65,99.47 54.98,110.99 C56.02,147.82 53.15,184.45 48.96,220.99 C45.83,248.28 35.57,321.59 33.21,349 C27.68,413.05 4.86,424.89 5,489 C5.1,533.56 7.1,612.32 5,657 C2.69,706.23 32.18,787.69 33.21,837 C34.37,892.49 1.93,998.63 5,1054 C10.57,1154.65 12.5,1144.71 5,1246 C4.01,1259.36 -4.83,1276.38 5,1302 C14.83,1327.62 38.59,1363.65 54.98,1364 C81.62,1364.56 134.36,1365.32 161,1364 C221.06,1361.03 220.05,1364.1 280,1370 C283.96,1370.39 406.01,1363.98 410,1364 C506,1364.66 548.5,1334.22 644.5,1335 C707.83,1335.51 769.68,1362.32 832.98,1364 C882.31,1365.31 939.7,1337.02 989,1335 C1054.38,1332.32 1133.67,1369.75 1199,1364 C1262.8,1358.38 1297.39,1367.17 1361.5,1364 C1407.27297,1361.74137 1464.22877,1336.77743 1510,1335 C1570.21475,1332.66169 1650.72047,1362.82963 1711,1364 C1788.46,1365.51 1894.5,1353.76 1971.5,1364 L2153.01,1335 C2159.40854,1335.76311 2256.20375,1334.24277 2352.89,1335 C2398.4853,1335.3571 2445.96074,1334.24277 2480.99,1335 C2516.01926,1335.75723 2515.70922,1141.24934 2532,1087 C2501.09347,964.027876 2484.09014,869.36121 2480.99,803 C2476.88533,715.135953 2485.64021,489 2512,415 C2538.19876,341.452082 2537.19876,261.452082 2509,175 Z" id="Path" transform="translate(1266.201336, 685.159555) scale(-1, -1) translate(-1266.201336, -685.159555) "></path>
        </g>
    </g>
</svg>