<?xml version="1.0" encoding="UTF-8"?>
<svg width="2508px" height="1371px" viewBox="0 0 2508 1371" version="1.1" xmlns="http://www.w3.org/2000/svg" xmlns:xlink="http://www.w3.org/1999/xlink">
    <!-- Generator: Sketch 53 (72520) - https://sketchapp.com -->
    <title>part1 2</title>
    <desc>Created with Sketch.</desc>
    <g id="Page-1" stroke="none" stroke-width="1" fill="none" fill-rule="evenodd" stroke-linecap="round" stroke-linejoin="round">
        <g id="part1-2" transform="translate(1.000000, 1.000000)" stroke="#FFFFFF" stroke-width="2">
            <path d="M2477,158 C2485.87,131.39 2466.15,58.66 2448.99,55.49 C2434.57,52.83 2420.12,32.65 2405.5,33 C2372.16,33.81 2354.43,28.37 2320.89,33 C2293.3,36.81 2269.57,27.64 2241.5,26 C2199.5,23.54 2163.03,35.39 2121.01,33 C2091.69,31.33 2041.92,37.74 2013.5,33 C1953,22.92 1895.58,51.75 1835,44.46 C1809.33,41.37 1793.93,44.99 1768,44.46 C1711.21,43.3 1649.64,66.86 1593.02,63.59 C1483.06,57.23 1411.04,10.78 1301,9 C1190.96,7.22 1128.26,12.69 1049,9 C968.96,5.27 880.96,-0.36 800.98,1 C725.65,2.28 661.34,7.96 586,9 C518.67,9.94 429.74,10.24 362.5,13 C295.81,15.73 224.64,17.19 158,22 C128.79,24.11 100.33,20.46 71,22 C60.66,22.54 38.66,15.37 28.77,17 C18.24,18.74 22.65,82.47 22.98,93.99 C24.02,130.82 21.15,167.45 16.96,203.99 C13.83,231.28 10.7,258.53 8.34,285.94 C2.81,349.99 3.97,413.89 4.11,478 C4.21,522.56 3.62,567.34 1.52,612.02 C-0.79,661.25 0.18,710.68 1.21,759.99 C2.37,815.48 9.54,870.65 12.61,926.02 C18.18,1026.67 36.27,1126.69 28.77,1227.98 C27.78,1241.34 27.97,1254.71 26.79,1267.98 C24.98,1288.33 6.59,1346.65 22.98,1347 C49.62,1347.56 102.36,1348.32 129,1347 C189.06,1344.03 188.05,1347.1 248,1353 C251.96,1353.39 307.01,1346.98 311,1347 C407,1347.66 516.5,1349.22 612.5,1350 C675.83,1350.51 737.68,1345.32 800.98,1347 C850.31,1348.31 898.2,1355.02 947.5,1353 C1012.88,1350.32 1065.17,1355.75 1130.5,1350 C1194.3,1344.38 1265.39,1350.17 1329.5,1347 C1375.27297,1344.74137 1432.22877,1319.77743 1478,1318 C1538.21475,1315.66169 1610.22047,1316.82963 1670.5,1318 C1747.96,1319.51 1818,1307.76 1895,1318 L2121.01,1307.91 C2127.40854,1308.67311 2224.20375,1317.24277 2320.89,1318 C2366.4853,1318.3571 2413.96074,1317.24277 2448.99,1318 C2484.01926,1318.75723 2460.70922,1126.74934 2477,1072.5 C2480.10014,909.86121 2480.10014,795.36121 2477,729 C2472.89533,641.135953 2448.99,558.654941 2448.99,498.5 C2448.99,423.582686 2458.32667,310.082686 2477,158 Z" id="Path"></path>
            <path d="M2502.65072,167.069481 C2511.61294,140.313578 2491.68792,67.1847979 2474.34951,63.9974167 C2459.7796,61.3228319 2445.17936,41.0321845 2430.40737,41.3841036 C2396.72074,42.1985448 2378.80641,36.7287172 2344.91771,41.3841036 C2317.04087,45.2149939 2293.06415,35.9947146 2264.70232,34.3457224 C2222.26566,31.8722342 2185.4165,43.787208 2142.95963,41.3841036 C2113.33481,39.7049469 2063.04737,46.1500931 2034.33189,41.3841036 C1973.2029,31.2488347 1915.18593,60.2369102 1853.9761,52.906939 C1828.03922,49.7999965 1812.47911,53.439845 1786.27953,52.906939 C1728.8991,51.7405787 1666.68898,75.4297587 1609.48033,72.1418292 C1498.37712,65.7469572 1425.60835,19.0422709 1314.42431,17.2525111 C1203.24027,15.4627513 1139.8884,20.9627434 1059.80436,17.2525111 C978.932218,13.5020594 890.017316,7.84119001 809.205795,9.20864692 C733.092619,10.4956652 668.114012,16.2068087 591.990732,17.2525111 C523.960728,18.1976651 434.106157,18.49931 366.167089,21.2744432 C298.783739,24.0194118 226.873812,25.487417 159.540982,30.3237904 C130.027297,32.4453595 101.27141,28.7753465 71.6364771,30.3237904 C61.1889761,30.8667512 38.9602507,23.6574379 28.9674282,25.2963753 C18.3279519,27.0459157 22.7838009,91.1253486 23.1172318,102.708513 C24.1680443,139.740453 21.268206,176.571296 17.0346442,213.311645 C13.8721028,240.751277 10.7095614,268.150689 8.3250254,295.710979 C2.73753214,360.112166 3.90959221,424.362531 4.05104774,488.824048 C4.1520874,533.628371 3.5559534,578.653901 1.43412051,623.578882 C-0.899895658,673.078812 0.0801890547,722.779837 1.12089756,772.360205 C2.29295763,828.154458 9.53750133,883.626956 12.6394189,939.300551 C18.2673281,1040.50242 36.5454028,1141.07083 28.9674282,1242.9162 C27.9671355,1256.34946 28.1591109,1269.79277 26.9668429,1283.13552 C25.138025,1303.5971 6.55683133,1362.23687 23.1172318,1362.58879 C50.0341975,1363.15186 103.322515,1363.91603 130.23948,1362.58879 C190.923901,1359.60251 189.9034,1362.68934 250.476677,1368.62169 C254.477848,1369.01383 310.100181,1362.56868 314.131664,1362.58879 C411.129738,1363.25241 521.768167,1364.82097 618.766242,1365.60524 C682.754659,1366.11804 745.24769,1360.89958 809.205795,1362.58879 C859.04866,1363.90598 907.436554,1370.65277 957.249107,1368.62169 C1023.30884,1365.927 1076.14248,1371.38677 1142.15169,1365.60524 C1206.61499,1359.95443 1278.44409,1365.77617 1343.22061,1362.58879 C1389.46947,1360.31777 1447.01741,1335.21696 1493.26451,1333.42979 C1554.10528,1331.07865 1626.85963,1332.253 1687.76586,1333.42979 C1766.03118,1334.94806 1836.79936,1323.13364 1914.5999,1333.42979 L2142.95963,1323.28446 C2149.4247,1324.05176 2247.22625,1332.6684 2344.91771,1333.42979 C2390.98705,1333.78884 2438.95606,1332.6684 2474.34951,1333.42979 C2509.74296,1334.19117 2486.19057,1141.13049 2502.65072,1086.5837 C2505.78309,923.053162 2505.78309,807.925356 2502.65072,741.200286 C2498.50338,652.854479 2474.34951,569.921222 2474.34951,509.43645 C2474.34951,434.108363 2483.78325,319.98604 2502.65072,167.069481 Z" id="Path" transform="translate(1252.500000, 689.000000) scale(-1, -1) translate(-1252.500000, -689.000000) "></path>
        </g>
    </g>
</svg>