<?xml version="1.0" encoding="utf-8"?>
<!-- Generator: Adobe Illustrator 23.0.2, SVG Export Plug-In . SVG Version: 6.00 Build 0)  -->
<svg version="1.1" id="Ebene_1" xmlns="http://www.w3.org/2000/svg" xmlns:xlink="http://www.w3.org/1999/xlink" x="0px" y="0px"
	 viewBox="0 0 1500 1500" style="enable-background:new 0 0 1500 1500;" xml:space="preserve">
<style type="text/css">
	.st0{fill:none;stroke:#FFFFFF;stroke-width:2;stroke-linecap:round;stroke-linejoin:round;stroke-miterlimit:10;}
</style>
<g>
	<path class="st0" d="M1999-968c8.87-26.61,5.11-42.56-12.05-45.73c-14.42-2.66-29.32-4.34-43.94-3.99
		c-33.34,0.81-66.58-1.72-100.12,2.91c-27.59,3.81-55.78-4.2-83.85-5.84c-42-2.46-84.02-4.96-126.04-7.35
		c-29.32-1.67-59.4-0.35-87.82-5.09c-60.5-10.08-121.67-9.06-182.25-16.35c-25.67-3.09-52.01-3.46-77.94-3.99
		c-56.79-1.16-113.35-5.71-169.97-8.98c-109.96-6.36-219.98-6.32-330.02-8.1c-79.34-1.29-158.72-4.39-237.98-8.08
		c-80.04-3.73-160.04-4.31-240.02-2.95c-75.33,1.28-150.66,2.85-226,3.89c-67.33,0.94-134.74,1.52-201.98,4.28
		c-66.69,2.73-133.43,5.99-200.07,10.8c-29.21,2.11-58.65,2.55-87.98,4.09c-10.34,0.54-20.01,3.3-29.9,4.93
		c-10.53,1.74-16.42,10.02-16.09,21.54c1.04,36.83-1.83,73.46-6.02,110c-3.13,27.29-6.26,54.54-8.62,81.95
		c-5.53,64.05-4.37,127.95-4.23,192.06c0.1,44.56-0.49,89.34-2.59,134.02c-2.31,49.23-1.34,98.66-0.31,147.97
		c1.16,55.49,8.33,110.66,11.4,166.03c5.57,100.65,23.66,200.67,16.16,301.96c-0.99,13.36-0.8,26.73-1.98,40
		c-1.81,20.35,7.82,23.34,24.21,23.69c26.64,0.56,53.35-0.46,79.99-1.78c60.06-2.97,120.06-3.84,180.01,2.06
		c3.96,0.39,8,0.03,11.99,0.05c96,0.66,192,1.25,288,2.03c63.33,0.51,126.69,0.54,189.99,2.22c49.33,1.31,98.69,5.41,147.99,3.39
		c65.38-2.68,130.76-5.04,196.09-10.79c63.8-5.62,127.78-10.46,191.89-13.63c105.99-5.23,211.93-10.96,318.03-8.9
		c77.46,1.51,155.01,3.44,232.01,13.68"/>
	<path class="st0" d="M1957,194c-21.9-8.35-45.41-8.53-68.08-11.38c-72.93-9.16-146.71-11.18-219.92-11.13
		c-60.32,0.04-120.02-5.71-179.95-8.55c-18.38-0.87-37.57-0.58-56.09-4.75c-14.79-3.33-28.95,4.57-43.96,4.01
		c-86.71-3.2-173.33,2.78-259.98,4.4c-75.37,1.41-150.5,11.16-226.01,11.22c-35.46,0.03-70.84-2.82-106-7.79
		c-20.01-2.83-26.11,4.27-19.91,23.94c9.9,31.38,35.32,49.78,60.08,67.8c42.65,31.04,92.25,41.95,143.83,46.29
		c51.61,4.33,102.67-1.66,154.06-5.26c63.77-4.46,128.18-10.14,191.86-3.94c67.74,6.6,136.1,14.19,201.89,31.87
		c107.63,28.93,193.08,90.95,254.28,185.22c43.29,66.68,67.45,140.56,79.37,218.14c9.99,65.01,15.71,130.68,24.23,195.96
		c7.82,59.91,25.47,117.1,44.52,173.89c39.26,117.03,93.59,228.15,136.23,343.91c14.7,39.9,26.34,80.33,30.96,122.23
		c3.17,28.73,1.62,58.61-23.49,79.83c-19,16.06-33.71,15.52-52.08-5.75c-24.86-28.78-29.08-63.13-25.23-98.08
		c3.93-35.69-4.12-67.4-20.6-98.07"/>
	<path class="st0" d="M1853-1010c31.33,5.33,62.63,10.93,94.03,15.8c7.4,1.15,15.07,2.91,21.77,4.88
		c30.39,8.91,34.73,34.12,34.21,61.32c-0.47,24.67-0.73,49.34-1.53,74.02c-1.2,36.61-0.68,73.43,1.93,109.95
		c2.76,38.69,1.8,77.39,2.97,116.05c2.01,66.19,10.16,131.92,12.24,197.99c1.34,42.6-2.28,85.35-1.29,127.98
		c1.26,54.4-8.8,107.88-10.87,161.99c-0.38,9.91-1.51,20.06-1.31,30.02c1.86,90.87-6.53,181.35-10.38,271.99
		c-0.34,8.07-3.3,16.17-5.9,23.97c-3.1,9.28-9.95,9.83-17.88,6.04"/>
	<path class="st0" d="M2007-512c-3.5,11.08-3.8,22.77-3.69,34c0.67,72.82-3.94,145.49-8.96,217.96
		c-7.15,103.28-7.06,206.9-16.02,309.99c-2.74,31.46-3.98,62.77-2.97,94.05c2.09,64.84-22.67,65.21-70.38,69.84
		c-47.26,4.59-93.45-6.76-139.94-12.22c-40.89-4.8-81.39-12.89-122.03-19.71c-3.46-0.58-6.68-2.57-10.02-3.9"/>
	<path class="st0" d="M1533-1030c-2.01,1.31-2.76,4.08-6,4.07c-64.02-0.26-128-0.5-192.03-3.53c-49.37-2.34-98.61-7.12-147.98-8.16
		c-34.06-0.72-67.93-4.96-101.99-4.31c-32.69,0.62-65.21,4.94-98,4.06c-32.65-0.88-65.28-6.17-98.03-0.3
		c-8.27,1.48-11.24-4.55-9.88-11.81c9.8-52.45-0.06-103.59-12.58-153.89c-11.6-46.6-20.68-94.04-41.23-138.25
		c-20.94-45.04-49.34-82.99-90.14-112.06c-57.14-40.72-120.69-61.74-190.1-68.16c-23.88-2.21-46.6-10.47-66.43-25.4
		c15.01-9.3,29.74-3.53,46.4,17.75"/>
</g>
</svg>
